<svg xmlns="http://www.w3.org/2000/svg" viewBox="0 0 1024 1024">
  <defs>
    <style>
      .cls-1 {
        fill: #fafbfe;
      }

      .cls-2,
      .cls-3 {
        fill: none;
        stroke-miterlimit: 10;
      }

      .cls-2 {
        stroke: #021b79;
        stroke-width: 10px;
      }

      .cls-3 {
        stroke: #000;
      }

      .cls-4 {
        fill: #4c76e2;
      }
    </style>
  </defs>
  <g id="Layer_2" data-name="Layer 2">
    <g id="Layer_1-2" data-name="Layer 1">
      <circle class="cls-1" cx="512" cy="512" r="512" />
      <path class="cls-2" d="M417.68,402.66H585.22" />
      <path class="cls-2" d="M431.15,446.78H598.69" />
      <path class="cls-2"
        d="M479.12,403a67.49,67.49,0,0,1,37,18.33c5.12,5.07,23.37,23.1,19.07,46.41-3.9,21.18-24.09,34-41,37.23-19.89,3.81-32.83-10-36.47-6.3-4.13,4.18,19.42,18.84,92.29,109.14" />
      <path
        d="M328.52,811c15.17,0,17.38-1.75,19.09-14.25l10.4-.87.86,1.25s-2.2,11.24-3.43,23.24l-1.1,1.37s-23-.87-38.18-.87a203.29,203.29,0,0,0-21.3,1.25l1-8.5c6.73-1,8.81-3.5,8.81-10.74l.13-47.37c0-5.37-.74-6.75-4-6.75-1.35,0-3.67.25-3.67.25l-.86-1.12,1-7.62s13.46.37,22.64.37c17.38,0,29.74-.5,37.2-1.5l1,1.38a182.89,182.89,0,0,0-2.81,22.74l-11.26.75s.24-3.25.24-5c0-6.87-1.71-7.87-15.42-7.87-5.75,0-6.36.37-6.48,4.12l-.86,19.37c2.57,0,7.83.13,11.38.13,4,0,14.2-1,14.2-1l1,1.12-1.71,10.75s-9.8-.38-15.92-.38a75.82,75.82,0,0,0-9.3.75c-.24,9.13-.36,14.13-.36,17.5C320.69,810.11,321.54,811,328.52,811Z" />
      <path
        d="M409.42,779.5l-13.1-20c-4.65-7-8.93-9.25-15.66-10.5l-.49-.62,1-8s10.28.25,19.46.25c7.59,0,18.72-.87,18.72-.87l.61,1.12-.61,7.25c-5.14.25-7.34,1.37-7.34,3.75,0,2.62,4.53,9.37,10.89,19,4.41-6.62,12-16.74,12-19.62,0-2-1.6-2.87-6-3.12l-.25-.63.74-7.24c3.06,0,10.77.37,16.15.37,5.88,0,13.71-.37,13.71-.37l.49.87-.61,7.62c-7.59,2.63-10.65,5.63-16.16,13.37l-13.21,18.63,14.31,21.12c4.78,6.87,9.31,10.12,16.16,10.49l.37.5-1,8.25s-10.77-.38-15.91-.38c-6.24,0-22,1-22,1l-.61-.87.73-7.62c4.53-.25,6.61-1.25,6.61-3.5,0-1.25-.61-2.63-1.84-4.5L416,789.37,408,801c-3.06,4.37-4.28,6.5-4.28,8.25,0,2.37,1.83,3.5,6,3.75l.49.87-.73,7.75s-11.63-.88-15.91-.88c-4.77,0-14.2.63-14.2.63l-.49-1.25.74-7.5c5.5-2,11.75-8.75,17.74-16.74Z" />
      <path
        d="M553,813l.49.87-.85,7.38s-9.67-.38-15.06-.38c-10.52,0-20.68,1-20.68,1l-.74-1,.62-7.5c8-.75,9.42-1.5,9.42-4.62a22.24,22.24,0,0,0-.61-4.13l-2.45-9.49C519.94,795,514.8,795,512,795a99.66,99.66,0,0,0-11.62.88l-3.06,9.37a15.9,15.9,0,0,0-.74,3.87c0,2.88,1.47,3.75,5.63,3.75h5.26l.49.88-.85,7.87s-10-.75-17.87-.75c-6.61,0-14.81.38-14.81.38l1-8.38c3.79-.62,6-2.75,7.95-8.25l21.79-63.35,19.46-2,1.35.62s11,43.36,17.5,64.48C545.15,810.24,547.48,812.49,553,813Zm-49.69-27.87h8.57c2.69,0,6.49-.25,9.06-.5l-7.1-27.49H512.1Z" />
      <path
        d="M631.68,791.49l-.24-37.36c-.13-3.88-1.23-5.38-4-5.38-1.72,0-3.67.13-4.16.13l-.49-1,.85-7.75s10.41.5,15.79.5c6,0,14.44-.62,14.44-.62l-.61,8.37c-5.38.75-7.59,2.87-7.71,7.87l-1.59,66.36-13,1.62c-19-31-35.62-55.48-35.62-55.48h-1.22L594,807.24c0,4.12,1.1,5.62,4.16,5.62,1.34,0,5.26-.37,5.26-.37l.74.87-1.23,8s-10.52-.5-15.79-.5c-6.61,0-15,1-15,1l1-8.37c4.9-.63,7.1-2.88,7.22-7.88l1.59-49.36c0-5.37-2-6.87-9.91-7.75l-1-1.25.85-7.24s8.21.62,14.2.62c5.26,0,11.75-.5,11.75-.5,15.91,26.49,32.68,51.36,32.68,51.36Z" />
      <path
        d="M747.59,813l.49.87-.86,7.38s-9.67-.38-15.05-.38c-10.53,0-20.69,1-20.69,1l-.73-1,.61-7.5c7.95-.75,9.42-1.5,9.42-4.62a22.24,22.24,0,0,0-.61-4.13l-2.45-9.49c-3.18-.13-8.32-.13-11.13-.13a99.84,99.84,0,0,0-11.63.88l-3.06,9.37a15.76,15.76,0,0,0-.73,3.87c0,2.88,1.46,3.75,5.63,3.75h5.26l.49.88-.86,7.87s-10-.75-17.87-.75c-6.61,0-14.81.38-14.81.38l1-8.38c3.8-.62,6-2.75,8-8.25l21.78-63.35,19.46-2,1.35.62s11,43.36,17.5,64.48C739.75,810.24,742.08,812.49,747.59,813ZM697.9,785.12h8.56c2.7,0,6.49-.25,9.06-.5l-7.1-27.49h-1.71Z" />
      <path class="cls-3"
        d="M706.47,735.63c105.17-66.55,142.45-214.26,82.3-342.42C753,317.49,688.78,261.1,615,240.59" />
      <g id="left_leafes" data-name="left leafes">
        <path class="cls-4"
          d="M619.27,242.73s-8.78-25-27.74-29.28A128.5,128.5,0,0,1,565.8,206s10.5,25.48,21.89,34.38S619.27,242.73,619.27,242.73Z" />
        <path class="cls-4"
          d="M665.83,265.83s-17.55-13-31.42-3.74a94,94,0,0,1-19.57,11.06s18.82,12.29,30.29,11.51S665.83,265.83,665.83,265.83Z" />
        <path class="cls-4"
          d="M660.48,254.86s-18.42-7.77-19.65-26.41a139,139,0,0,0-3.17-25s18.6,9.55,24.28,20.42S660.48,254.86,660.48,254.86Z" />
        <path class="cls-4"
          d="M712.25,293.47s-22.6-11.39-36.67,2.8A118.79,118.79,0,0,1,655.3,314s23.73,10.25,36.82,6.82S712.25,293.47,712.25,293.47Z" />
        <path class="cls-4"
          d="M709,285s-17.8-15-13.65-34.67a143.76,143.76,0,0,0,4.35-27s17.6,16.68,20.59,30.11S709,285,709,285Z" />
        <path class="cls-4"
          d="M742.53,324.56s-24.39-7.89-36.69,8.87a128,128,0,0,1-18.15,21.31s25.39,6.21,38,.72S742.53,324.56,742.53,324.56Z" />
        <path class="cls-4"
          d="M749.56,325.4s-13-19.63-3.95-35.94a124.3,124.3,0,0,0,10.71-23s12.25,21.07,11.6,34.16S749.56,325.4,749.56,325.4Z" />
        <path class="cls-4"
          d="M784,376.45s-22.44-14.25-38.6-4.6a112.06,112.06,0,0,1-23.12,11.31s23.77,13.21,37.68,12.6S784,376.45,784,376.45Z" />
        <path class="cls-4"
          d="M800.3,417.45s-20.55-2.35-29,11.84A108.23,108.23,0,0,1,758.53,448s21.43,1.37,31.16-4.69S800.3,417.45,800.3,417.45Z" />
        <path class="cls-4"
          d="M813.8,473.55s-26-5-37.65,12.29a130,130,0,0,1-17.42,22.5s27.07,3.5,39.81-3.34S813.8,473.55,813.8,473.55Z" />
        <path class="cls-4"
          d="M782.38,378.88s-13.65-20.83-7.65-37.93a130.64,130.64,0,0,0,6.67-24.12s13.2,22.42,14.24,36.5S782.38,378.88,782.38,378.88Z" />
        <path class="cls-4"
          d="M805.18,420.39s-8.74-23.79,3.19-37.83a115.87,115.87,0,0,0,15.08-20.49s7.75,25,4.51,38.36S805.18,420.39,805.18,420.39Z" />
        <path class="cls-4"
          d="M816.57,482.44s0-26,16.06-34.5a107.74,107.74,0,0,0,21.29-13.28s-1.41,26.82-9,38.13S816.57,482.44,816.57,482.44Z" />
        <path class="cls-4"
          d="M820.52,537.31s4.45-27.83,25.42-32.12a122.78,122.78,0,0,0,27.75-7.74s-6.24,28.26-17.36,38S820.52,537.31,820.52,537.31Z" />
        <path class="cls-4"
          d="M811,595.19s10.37-23.71,31.88-20.58a126.76,126.76,0,0,0,28.83,2.22s-12.44,23.54-25.44,28.67S811,595.19,811,595.19Z" />
        <path class="cls-4"
          d="M791.14,644s7.74-21.54,28.77-16A130.71,130.71,0,0,0,848,633.6s-9.73,21.09-21.63,24.44S791.14,644,791.14,644Z" />
        <path class="cls-4"
          d="M745.66,710.43s12.86-24.9,33.85-24.26a125.94,125.94,0,0,0,28.71-1s-14.66,25.12-28.14,31.66S745.66,710.43,745.66,710.43Z" />
        <path class="cls-4"
          d="M820.12,529.38s-23.47-8.34-35.65,8.2a125.54,125.54,0,0,1-17.76,21.1s24.72,6.91,36.82,1.41S820.12,529.38,820.12,529.38Z" />
        <path class="cls-4"
          d="M808.8,594s-18.1-15.64-33.7-7.65A104.87,104.87,0,0,1,753,595.53s19.36,15,31.74,15.51S808.8,594,808.8,594Z" />
        <path class="cls-4"
          d="M787.65,655.86s-18.06-20-36.26-16.1a111,111,0,0,1-25.24,3.47s19.68,19.74,33.31,23.44S787.65,655.86,787.65,655.86Z" />
        <path class="cls-4"
          d="M748.35,708.63s-14.75-24.32-35.43-22.71a123.35,123.35,0,0,1-28.42-.08s16.75,24.22,30.38,30.35S748.35,708.63,748.35,708.63Z" />
      </g>
      <path class="cls-3"
        d="M317.53,731.93c-105.17-66.55-142.45-214.26-82.3-342.42C271,313.79,335.22,257.4,409,236.89" />
      <g id="left_leafes-2" data-name="left leafes">
        <path class="cls-4"
          d="M404.73,239s8.78-25,27.74-29.28a128.5,128.5,0,0,0,25.73-7.42s-10.5,25.48-21.89,34.38S404.73,239,404.73,239Z" />
        <path class="cls-4"
          d="M358.17,262.13s17.55-13,31.42-3.74a94,94,0,0,0,19.57,11.06S390.34,281.74,378.87,281,358.17,262.13,358.17,262.13Z" />
        <path class="cls-4"
          d="M363.52,251.16s18.42-7.77,19.65-26.41a139,139,0,0,1,3.17-25s-18.6,9.55-24.28,20.42S363.52,251.16,363.52,251.16Z" />
        <path class="cls-4"
          d="M311.75,289.77s22.6-11.39,36.67,2.8a118.79,118.79,0,0,0,20.28,17.68S345,320.5,331.88,317.07,311.75,289.77,311.75,289.77Z" />
        <path class="cls-4"
          d="M315.05,281.26s17.8-15,13.65-34.67a143.76,143.76,0,0,1-4.35-27s-17.6,16.68-20.59,30.11S315.05,281.26,315.05,281.26Z" />
        <path class="cls-4"
          d="M281.47,320.86s24.39-7.89,36.69,8.87A128,128,0,0,0,336.31,351s-25.39,6.21-38,.72S281.47,320.86,281.47,320.86Z" />
        <path class="cls-4"
          d="M274.44,321.7s13-19.63,3.95-35.94a124.3,124.3,0,0,1-10.71-23s-12.25,21.07-11.6,34.16S274.44,321.7,274.44,321.7Z" />
        <path class="cls-4"
          d="M240,372.75s22.44-14.25,38.6-4.6a112.06,112.06,0,0,0,23.12,11.31s-23.77,13.21-37.68,12.6S240,372.75,240,372.75Z" />
        <path class="cls-4"
          d="M223.7,413.75s20.55-2.35,29,11.84a108.23,108.23,0,0,0,12.73,18.66s-21.43,1.37-31.16-4.69S223.7,413.75,223.7,413.75Z" />
        <path class="cls-4"
          d="M210.2,469.85s26-5,37.65,12.3a130.28,130.28,0,0,0,17.42,22.49s-27.07,3.5-39.81-3.34S210.2,469.85,210.2,469.85Z" />
        <path class="cls-4"
          d="M241.62,375.18s13.65-20.83,7.65-37.93a130.64,130.64,0,0,1-6.67-24.12s-13.2,22.42-14.24,36.5S241.62,375.18,241.62,375.18Z" />
        <path class="cls-4"
          d="M218.82,416.69s8.74-23.79-3.19-37.83a115.87,115.87,0,0,1-15.08-20.49s-7.75,25-4.51,38.36S218.82,416.69,218.82,416.69Z" />
        <path class="cls-4"
          d="M207.43,478.74s0-26-16.06-34.5A108.16,108.16,0,0,1,170.08,431s1.41,26.81,9,38.12S207.43,478.74,207.43,478.74Z" />
        <path class="cls-4"
          d="M203.48,533.61s-4.45-27.83-25.42-32.12a122.78,122.78,0,0,1-27.75-7.74s6.24,28.26,17.36,38S203.48,533.61,203.48,533.61Z" />
        <path class="cls-4"
          d="M213,591.49s-10.37-23.71-31.88-20.58a126.76,126.76,0,0,1-28.83,2.22s12.44,23.54,25.44,28.67S213,591.49,213,591.49Z" />
        <path class="cls-4"
          d="M232.86,640.26s-7.74-21.54-28.77-16A130.71,130.71,0,0,1,176,629.9s9.73,21.09,21.63,24.44S232.86,640.26,232.86,640.26Z" />
        <path class="cls-4"
          d="M278.34,706.73s-12.86-24.9-33.85-24.26a125.94,125.94,0,0,1-28.71-1s14.66,25.12,28.14,31.66S278.34,706.73,278.34,706.73Z" />
        <path class="cls-4"
          d="M203.88,525.68s23.47-8.34,35.65,8.2A125.54,125.54,0,0,0,257.29,555s-24.72,6.91-36.82,1.41S203.88,525.68,203.88,525.68Z" />
        <path class="cls-4"
          d="M215.2,590.27s18.1-15.64,33.7-7.65A104.87,104.87,0,0,0,271,591.83s-19.36,15-31.74,15.51S215.2,590.27,215.2,590.27Z" />
        <path class="cls-4"
          d="M236.35,652.16s18.06-20,36.26-16.1a111,111,0,0,0,25.24,3.47S278.17,659.27,264.54,663,236.35,652.16,236.35,652.16Z" />
        <path class="cls-4"
          d="M275.65,704.93s14.75-24.32,35.43-22.71a123.35,123.35,0,0,0,28.42-.08s-16.75,24.22-30.38,30.35S275.65,704.93,275.65,704.93Z" />
      </g>
    </g>
  </g>
</svg>