<svg xmlns="http://www.w3.org/2000/svg" viewBox="0 0 512 512">
  <defs>
    <style>
      .cls-1 {
        fill: #021b65;
      }

      .cls-2,
      .cls-4 {
        fill: none;
        stroke-miterlimit: 10;
      }

      .cls-2 {
        stroke: #fafbfe;
        stroke-width: 10px;
      }

      .cls-3 {
        fill: #fafbfe;
      }

      .cls-4 {
        stroke: #fafbfc;
      }

      .cls-5 {
        fill: #4c76e2;
      }
    </style>
  </defs>
  <g id="Layer_2" data-name="Layer 2">
    <g id="Layer_1-2" data-name="Layer 1">
      <circle class="cls-1" cx="256" cy="256" r="256" />
      <path class="cls-2" d="M208.49,202.45h83.77" />
      <path class="cls-2" d="M215.23,224.5H299" />
      <path class="cls-2"
        d="M239.21,202.59a33.76,33.76,0,0,1,18.52,9.17c2.56,2.53,11.68,11.55,9.53,23.2-1.95,10.59-12,17-20.47,18.62-9.95,1.9-16.42-5-18.24-3.15-2.06,2.09,9.71,9.42,46.15,54.56" />
      <path class="cls-3"
        d="M163.91,406.61c7.59,0,8.69-.87,9.55-7.12l5.2-.44.43.63s-1.1,5.62-1.72,11.62l-.55.68s-11.5-.43-19.09-.43a102.58,102.58,0,0,0-10.65.62l.49-4.25c3.37-.5,4.41-1.75,4.41-5.37l.06-23.68c0-2.69-.37-3.38-2-3.38-.67,0-1.83.13-1.83.13l-.43-.56.49-3.81s6.73.18,11.32.18a158.76,158.76,0,0,0,18.6-.75l.49.69a92,92,0,0,0-1.41,11.37l-5.63.38s.13-1.63.13-2.5c0-3.44-.86-3.94-7.72-3.94-2.87,0-3.18.19-3.24,2.06l-.43,9.69c1.29,0,3.92.06,5.69.06,2,0,7.1-.5,7.1-.5l.49.56-.85,5.38s-4.9-.19-8-.19a39,39,0,0,0-4.65.37c-.12,4.57-.18,7.06-.18,8.75C160,406.17,160.42,406.61,163.91,406.61Z" />
      <path class="cls-3"
        d="M204.36,390.87l-6.55-10c-2.32-3.5-4.46-4.63-7.83-5.25l-.24-.31.49-4s5.14.12,9.73.12c3.79,0,9.36-.44,9.36-.44l.31.57-.31,3.62c-2.57.13-3.67.69-3.67,1.88s2.26,4.68,5.44,9.49c2.21-3.31,6-8.37,6-9.81,0-1-.79-1.43-3-1.56l-.12-.31.37-3.62c1.53,0,5.38.18,8.07.18,2.94,0,6.86-.18,6.86-.18l.24.43-.3,3.81c-3.8,1.32-5.33,2.82-8.08,6.69l-6.61,9.31,7.16,10.56c2.39,3.44,4.65,5.06,8.08,5.25l.18.25-.49,4.12s-5.38-.19-7.95-.19c-3.12,0-11,.5-11,.5l-.3-.43.36-3.81c2.27-.13,3.31-.63,3.31-1.75a4.35,4.35,0,0,0-.92-2.25l-5.26-7.94-4,5.81c-1.53,2.19-2.14,3.25-2.14,4.13,0,1.18.91,1.75,3,1.87l.25.44-.37,3.87s-5.81-.44-8-.44c-2.39,0-7.1.32-7.1.32l-.25-.63.37-3.75c2.76-1,5.88-4.37,8.87-8.37Z" />
      <path class="cls-3"
        d="M276.14,407.61l.25.44-.43,3.68s-4.83-.18-7.53-.18c-5.26,0-10.34.5-10.34.5l-.37-.5.31-3.75c4-.38,4.71-.75,4.71-2.31a11.57,11.57,0,0,0-.3-2.07l-1.23-4.74c-1.59-.07-4.16-.07-5.57-.07a50,50,0,0,0-5.81.44l-1.53,4.69a8.17,8.17,0,0,0-.37,1.93c0,1.44.74,1.88,2.82,1.88h2.63l.25.44-.43,3.93s-5-.37-8.94-.37c-3.3,0-7.4.18-7.4.18l.49-4.18c1.89-.31,3-1.38,4-4.13l10.89-31.67,9.73-1,.67.31s5.51,21.68,8.75,32.24C272.23,406.24,273.39,407.36,276.14,407.61ZM251.3,393.68h4.28c1.35,0,3.25-.13,4.53-.25l-3.55-13.75h-.85Z" />
      <path class="cls-3"
        d="M315.49,396.86l-.12-18.68c-.06-1.94-.61-2.69-2-2.69-.85,0-1.83.07-2.08.07l-.24-.5.43-3.88s5.2.25,7.89.25c3,0,7.22-.31,7.22-.31l-.31,4.19c-2.69.37-3.79,1.43-3.85,3.93l-.8,33.18-6.48.81c-9.49-15.49-17.81-27.74-17.81-27.74h-.61l-.06,19.25c0,2.06.55,2.81,2.08,2.81.67,0,2.63-.19,2.63-.19l.37.44-.62,4s-5.26-.25-7.89-.25c-3.3,0-7.53.5-7.53.5l.49-4.19c2.45-.31,3.55-1.44,3.61-3.94l.8-24.68c0-2.68-1-3.43-5-3.87l-.49-.63.43-3.62s4.1.31,7.1.31c2.63,0,5.87-.25,5.87-.25,8,13.25,16.34,25.68,16.34,25.68Z" />
      <path class="cls-3"
        d="M373.45,407.61l.24.44-.43,3.68s-4.83-.18-7.52-.18c-5.27,0-10.35.5-10.35.5l-.36-.5.3-3.75c4-.38,4.72-.75,4.72-2.31a11.77,11.77,0,0,0-.31-2.07l-1.22-4.74c-1.6-.07-4.17-.07-5.57-.07a50,50,0,0,0-5.82.44l-1.53,4.69a8,8,0,0,0-.36,1.93c0,1.44.73,1.88,2.81,1.88h2.63l.25.44-.43,3.93s-5-.37-8.94-.37c-3.3,0-7.4.18-7.4.18l.49-4.18c1.9-.31,3-1.38,4-4.13l10.89-31.67,9.73-1,.67.31s5.51,21.68,8.75,32.24C369.53,406.24,370.69,407.36,373.45,407.61ZM348.6,393.68h4.29c1.34,0,3.24-.13,4.52-.25l-3.55-13.75H353Z" />
      <path class="cls-4" d="M352.89,368.93C405.48,335.66,424.11,261.8,394,197.72c-17.9-37.86-50-66.06-86.88-76.31" />
      <g id="left_leafes" data-name="left leafes">
        <path class="cls-5"
          d="M309.29,122.48s-4.39-12.5-13.87-14.64a64.39,64.39,0,0,1-12.87-3.71s5.25,12.74,10.95,17.19S309.29,122.48,309.29,122.48Z" />
        <path class="cls-5"
          d="M332.57,134s-8.78-6.51-15.71-1.87a47,47,0,0,1-9.79,5.53s9.41,6.15,15.15,5.76S332.57,134,332.57,134Z" />
        <path class="cls-5"
          d="M329.89,128.55s-9.21-3.89-9.82-13.21a69.08,69.08,0,0,0-1.59-12.49s9.3,4.78,12.14,10.21S329.89,128.55,329.89,128.55Z" />
        <path class="cls-5"
          d="M355.78,147.85s-11.3-5.69-18.34,1.4a58.8,58.8,0,0,1-10.14,8.84s11.87,5.13,18.41,3.41S355.78,147.85,355.78,147.85Z" />
        <path class="cls-5"
          d="M354.13,143.6s-8.9-7.51-6.83-17.34a72.31,72.31,0,0,0,2.18-13.48s8.8,8.34,10.29,15S354.13,143.6,354.13,143.6Z" />
        <path class="cls-5"
          d="M370.92,163.4s-12.2-4-18.35,4.43a63.77,63.77,0,0,1-9.07,10.66s12.69,3.1,19,.36S370.92,163.4,370.92,163.4Z" />
        <path class="cls-5"
          d="M374.44,163.82s-6.51-9.82-2-18a62.28,62.28,0,0,0,5.35-11.5s6.13,10.53,5.8,17.08S374.44,163.82,374.44,163.82Z" />
        <path class="cls-5"
          d="M391.64,189.34s-11.22-7.12-19.3-2.3a55.8,55.8,0,0,1-11.56,5.66s11.89,6.6,18.84,6.3S391.64,189.34,391.64,189.34Z" />
        <path class="cls-5"
          d="M399.8,209.84s-10.27-1.17-14.52,5.92a54.09,54.09,0,0,1-6.36,9.33s10.71.69,15.58-2.34S399.8,209.84,399.8,209.84Z" />
        <path class="cls-5"
          d="M406.55,237.89s-13-2.51-18.82,6.15A64.72,64.72,0,0,1,379,255.28s13.53,1.76,19.9-1.66S406.55,237.89,406.55,237.89Z" />
        <path class="cls-5"
          d="M390.84,190.56s-6.82-10.42-3.82-19a65.31,65.31,0,0,0,3.33-12.06s6.6,11.21,7.12,18.25S390.84,190.56,390.84,190.56Z" />
        <path class="cls-5"
          d="M402.24,211.31s-4.37-11.89,1.6-18.92a58,58,0,0,0,7.54-10.24s3.87,12.52,2.25,19.18S402.24,211.31,402.24,211.31Z" />
        <path class="cls-5"
          d="M407.94,242.33s0-13,8-17.24a54.3,54.3,0,0,0,10.64-6.64s-.7,13.41-4.49,19.06S407.94,242.33,407.94,242.33Z" />
        <path class="cls-5"
          d="M409.91,269.77s2.23-13.92,12.71-16.06a61.43,61.43,0,0,0,13.88-3.87s-3.12,14.13-8.68,19S409.91,269.77,409.91,269.77Z" />
        <path class="cls-5"
          d="M405.17,298.71s5.18-11.85,15.93-10.29a63.42,63.42,0,0,0,14.42,1.11s-6.22,11.77-12.72,14.34S405.17,298.71,405.17,298.71Z" />
        <path class="cls-5"
          d="M395.22,323.1s3.87-10.77,14.39-8a65.35,65.35,0,0,0,14,2.82s-4.87,10.54-10.82,12.22S395.22,323.1,395.22,323.1Z" />
        <path class="cls-5"
          d="M372.48,356.33s6.43-12.45,16.93-12.13a63.21,63.21,0,0,0,14.35-.5s-7.33,12.56-14.07,15.83S372.48,356.33,372.48,356.33Z" />
        <path class="cls-5"
          d="M409.71,265.81s-11.73-4.17-17.82,4.1A62.77,62.77,0,0,1,383,280.46s12.36,3.45,18.41.7S409.71,265.81,409.71,265.81Z" />
        <path class="cls-5"
          d="M404.05,298.1s-9.05-7.82-16.85-3.82a52.2,52.2,0,0,1-11.06,4.6s9.68,7.51,15.87,7.76S404.05,298.1,404.05,298.1Z" />
        <path class="cls-5"
          d="M393.48,329.05s-9-10-18.13-8.05a55.52,55.52,0,0,1-12.62,1.73s9.84,9.87,16.65,11.72S393.48,329.05,393.48,329.05Z" />
        <path class="cls-5"
          d="M373.83,355.43s-7.38-12.16-17.72-11.36a61.4,61.4,0,0,1-14.21,0s8.38,12.11,15.19,15.17S373.83,355.43,373.83,355.43Z" />
      </g>
      <path class="cls-4" d="M158.42,367.08C105.83,333.81,87.19,260,117.27,195.87c17.9-37.86,50-66.05,86.87-76.31" />
      <g id="left_leafes-2" data-name="left leafes">
        <path class="cls-5"
          d="M202,120.63s4.39-12.5,13.87-14.64a63.46,63.46,0,0,0,12.86-3.71S223.5,115,217.81,119.47,202,120.63,202,120.63Z" />
        <path class="cls-5"
          d="M178.74,132.18s8.77-6.51,15.71-1.87a47,47,0,0,0,9.78,5.53s-9.4,6.15-15.14,5.76S178.74,132.18,178.74,132.18Z" />
        <path class="cls-5"
          d="M181.41,126.7s9.21-3.89,9.83-13.21A70,70,0,0,1,192.82,101s-9.3,4.78-12.14,10.21S181.41,126.7,181.41,126.7Z" />
        <path class="cls-5"
          d="M155.53,146s11.3-5.69,18.33,1.4A59.56,59.56,0,0,0,184,156.24s-11.86,5.13-18.41,3.41S155.53,146,155.53,146Z" />
        <path class="cls-5"
          d="M157.18,141.75s8.9-7.51,6.82-17.34a71.48,71.48,0,0,1-2.17-13.48s-8.8,8.34-10.3,15S157.18,141.75,157.18,141.75Z" />
        <path class="cls-5"
          d="M140.39,161.55s12.19-4,18.34,4.43a64.3,64.3,0,0,0,9.08,10.66s-12.7,3.1-19,.36S140.39,161.55,140.39,161.55Z" />
        <path class="cls-5"
          d="M136.87,162s6.51-9.82,2-18a62.32,62.32,0,0,1-5.36-11.5s-6.12,10.53-5.8,17.08S136.87,162,136.87,162Z" />
        <path class="cls-5"
          d="M119.66,187.49s11.22-7.12,19.3-2.3a55.8,55.8,0,0,0,11.56,5.66s-11.88,6.6-18.84,6.3S119.66,187.49,119.66,187.49Z" />
        <path class="cls-5"
          d="M111.5,208s10.28-1.17,14.52,5.92a54.14,54.14,0,0,0,6.37,9.33s-10.72.69-15.58-2.34S111.5,208,111.5,208Z" />
        <path class="cls-5"
          d="M104.75,236s13-2.51,18.83,6.15a64.72,64.72,0,0,0,8.71,11.24s-13.54,1.76-19.91-1.66S104.75,236,104.75,236Z" />
        <path class="cls-5"
          d="M120.46,188.71s6.83-10.42,3.83-19A65.34,65.34,0,0,1,121,157.68s-6.6,11.21-7.12,18.25S120.46,188.71,120.46,188.71Z" />
        <path class="cls-5"
          d="M109.06,209.46s4.38-11.89-1.59-18.92a57,57,0,0,1-7.54-10.24s-3.88,12.52-2.25,19.18S109.06,209.46,109.06,209.46Z" />
        <path class="cls-5"
          d="M103.37,240.48s0-13-8-17.24a54.37,54.37,0,0,1-10.65-6.64s.71,13.41,4.5,19.06S103.37,240.48,103.37,240.48Z" />
        <path class="cls-5"
          d="M101.39,267.92S99.17,254,88.68,251.86A61.5,61.5,0,0,1,74.81,248s3.12,14.13,8.68,19S101.39,267.92,101.39,267.92Z" />
        <path class="cls-5"
          d="M106.14,296.86S101,285,90.2,286.57a63.34,63.34,0,0,1-14.41,1.11S82,299.45,88.51,302,106.14,296.86,106.14,296.86Z" />
        <path class="cls-5"
          d="M116.08,321.25s-3.87-10.77-14.38-8a65.47,65.47,0,0,1-14,2.82s4.87,10.54,10.82,12.22S116.08,321.25,116.08,321.25Z" />
        <path class="cls-5"
          d="M138.82,354.48S132.4,342,121.9,342.35a63.3,63.3,0,0,1-14.36-.5s7.33,12.56,14.07,15.83S138.82,354.48,138.82,354.48Z" />
        <path class="cls-5"
          d="M101.59,264s11.74-4.17,17.83,4.1a62.77,62.77,0,0,0,8.88,10.55s-12.36,3.45-18.41.7S101.59,264,101.59,264Z" />
        <path class="cls-5"
          d="M107.26,296.25s9-7.82,16.84-3.82a52.5,52.5,0,0,0,11.07,4.6s-9.69,7.51-15.88,7.76S107.26,296.25,107.26,296.25Z" />
        <path class="cls-5"
          d="M117.83,327.2s9-10,18.13-8.05a55.45,55.45,0,0,0,12.62,1.73s-9.84,9.87-16.66,11.72S117.83,327.2,117.83,327.2Z" />
        <path class="cls-5"
          d="M137.48,353.58s7.37-12.16,17.71-11.35a62,62,0,0,0,14.21,0S161,354.3,154.21,357.36,137.48,353.58,137.48,353.58Z" />
      </g>
    </g>
  </g>
</svg>